<svg width="16" height="16" viewBox="0 0 16 16" fill="none" xmlns="http://www.w3.org/2000/svg">
<g clip-path="url(#clip0)">
<path d="M3.37589 0.00763853C3.11614 -0.0262655 2.8903 0.0528894 2.69836 0.244772L0.462622 2.49754C0.349701 2.59916 0.253635 2.73182 0.174673 2.89555C0.0956015 3.05929 0.0447868 3.22017 0.0222306 3.37821C0.0222306 3.3895 0.0193257 3.42346 0.0136799 3.47994C0.00806182 3.53632 0.00518268 3.60972 0.00518268 3.70006C0.00518269 3.91466 0.041882 4.26192 0.115308 4.74183C0.188735 5.22174 0.369434 5.8089 0.657326 6.50331C0.945273 7.19788 1.37725 7.98547 1.95309 8.86622C2.5289 9.74697 3.3194 10.6842 4.32442 11.6779C5.10357 12.4684 5.84885 13.1233 6.56022 13.6428C7.27164 14.1622 7.92941 14.58 8.53353 14.8962C9.13765 15.2124 9.68532 15.4495 10.1765 15.6076C10.6677 15.7657 11.0912 15.873 11.4469 15.9294C11.8026 15.9859 12.0821 16.0085 12.2853 15.9972C12.4886 15.9859 12.6015 15.9802 12.6241 15.9802C12.7822 15.9577 12.9431 15.9068 13.1068 15.8278C13.2705 15.7488 13.4032 15.6528 13.5049 15.5398L15.7576 13.2871C15.9157 13.129 15.9948 12.9483 15.9948 12.7451C15.9948 12.5983 15.9524 12.4684 15.8677 12.3555C15.783 12.2426 15.6786 12.1466 15.5544 12.0675L12.1159 10.2552C11.9353 10.1535 11.7376 10.1253 11.5231 10.1705C11.3086 10.2156 11.1279 10.3116 10.9811 10.4584L10.1511 11.2884C10.1285 11.311 10.0918 11.3307 10.041 11.3477C9.9902 11.3646 9.94786 11.3731 9.91398 11.3731C9.67685 11.3279 9.40584 11.2263 9.10096 11.0682C8.82995 10.9327 8.49965 10.7238 8.11008 10.4415C7.7205 10.1592 7.27167 9.75832 6.76353 9.23889C6.24404 8.73075 5.8404 8.27906 5.5524 7.88384C5.26457 7.4887 5.05276 7.1583 4.91725 6.89294C4.78175 6.62757 4.69988 6.42432 4.67173 6.28319L4.62936 6.07152C4.62936 6.04894 4.63786 6.01216 4.65477 5.9614C4.67173 5.91058 4.69147 5.87388 4.71408 5.85127L5.69649 4.88583C5.87713 4.68246 5.96747 4.44544 5.96747 4.1744C5.96747 3.98238 5.93362 3.83002 5.86584 3.7171L5.86584 3.70019L3.9349 0.431174C3.78799 0.193958 3.60173 0.0528341 3.37589 0.00763853Z" fill="#F1CA2A"/>
</g>
<defs>
<clipPath id="clip0">
<rect width="16" height="16" fill="white" transform="matrix(-4.37114e-08 -1 -1 4.37114e-08 16 16)"/>
</clipPath>
</defs>
</svg>
