<svg width="102" height="102" viewBox="0 0 102 102" fill="none" xmlns="http://www.w3.org/2000/svg">
<circle cx="51" cy="51" r="51" fill="#F1CA2A"/>
<g clip-path="url(#clip0)">
<path d="M36.0904 44.6025H31.5983C30.7893 44.6025 30.1335 45.2584 30.1335 46.0674V49.4852H28.6687C27.8597 49.4852 27.2039 50.1411 27.2039 50.9501C27.2039 51.759 27.8597 52.4149 28.6687 52.4149H30.1335V55.8328C30.1335 56.6417 30.7893 57.2976 31.5983 57.2976H36.0904C36.8994 57.2976 37.5552 56.6417 37.5552 55.8328V46.0674C37.5552 45.2584 36.8994 44.6025 36.0904 44.6025Z" fill="#1B130F"/>
<path d="M72.2082 67.9441L68.0931 60.8164C66.6702 62.0029 64.8413 62.7182 62.8481 62.7182H55.6599L62.0597 73.8033C62.8728 75.2116 64.3527 75.9997 65.8727 75.9997C66.6177 75.9997 67.3723 75.8103 68.0626 75.4117L70.5998 73.9469C72.6983 72.7354 73.4197 70.0425 72.2082 67.9441Z" fill="#1B130F"/>
<path d="M68.1209 54.516V48.5583C68.1209 47.7493 67.4651 47.0935 66.6561 47.0935H55.3282V43.3821H56.197C59.5949 43.3821 62.3593 40.6177 62.3593 37.2197V28.9296H63.2382C64.0472 28.9296 64.703 28.2738 64.703 27.4648C64.703 26.6558 64.0472 26 63.2382 26H44.4886C43.6797 26 43.0238 26.6558 43.0238 27.4648C43.0238 28.2738 43.6797 28.9296 44.4886 28.9296H45.3675V37.2197C45.3675 40.6178 48.132 43.3821 51.53 43.3821H52.3986V47.0935H40.4862V54.8082H44.399C44.551 57.5805 46.8544 59.7889 49.6638 59.7889H62.8481C65.7556 59.7889 68.1209 57.4234 68.1209 54.516Z" fill="#1B130F"/>
</g>
<defs>
<clipPath id="clip0">
<rect width="50" height="50" fill="white" transform="translate(25 26)"/>
</clipPath>
</defs>
</svg>
