<svg width="102" height="102" viewBox="0 0 102 102" fill="none" xmlns="http://www.w3.org/2000/svg">
<circle cx="51" cy="51" r="51" fill="#F1CA2A"/>
<g clip-path="url(#clip0)">
<path d="M23.8229 64.0373L19.0823 66.3956C18.633 66.6191 18.4499 67.165 18.6734 67.6142C18.897 68.0635 19.4428 68.2466 19.8921 68.023L24.6319 65.6645L23.8229 64.0373Z" fill="black"/>
<path d="M53.5046 50.2816C52.8224 48.9041 52.3386 47.437 52.0681 45.924L24.6432 59.5703C24.4271 59.6774 24.2628 59.8661 24.186 60.0948C24.1094 60.3232 24.1268 60.5727 24.2344 60.7889L27.4717 67.294C27.7028 67.7332 28.239 67.913 28.6883 67.7021L56.1069 54.0636C55.0659 52.9312 54.19 51.6582 53.5046 50.2816Z" fill="black"/>
<path d="M44.9828 45.3907L46.6091 44.5814L47.4183 46.2082L45.7919 47.0175L44.9828 45.3907Z" fill="black"/>
<path d="M68.4186 41.4253C67.7222 41.1917 66.9536 41.4008 66.471 41.9552C65.9885 42.5091 65.8873 43.299 66.2144 43.9571C66.6777 44.8367 67.7505 45.1966 68.6501 44.7742C69.3078 44.4465 69.7034 43.7553 69.6531 43.0226C69.6025 42.2894 69.1154 41.6591 68.4186 41.4253Z" fill="black"/>
<path d="M63.7979 55.1991C58.9202 53.5661 55.5074 49.1543 55.152 44.0231C54.7967 38.8914 57.5689 34.0515 62.1748 31.7616C62.277 31.7108 62.3824 31.6741 62.4849 31.6252L61.6684 29.9838C54.4818 33.56 51.5549 42.2849 55.1311 49.4716C58.7072 56.6582 67.4322 59.5851 74.6188 56.009L73.8018 54.3679C73.7016 54.4213 73.6083 54.4831 73.506 54.5329C70.4876 56.0374 66.9937 56.2773 63.7979 55.1991Z" fill="black"/>
<path d="M71.306 32.8175C66.3783 31.1686 60.9722 33.2303 58.3933 37.7411C55.8143 42.252 56.7808 47.9564 60.7018 51.3662C64.6228 54.7761 70.4059 54.9416 74.5154 51.762C78.6251 48.5819 79.9163 42.942 77.5995 38.2911C76.3132 35.7019 74.0485 33.7323 71.306 32.8175ZM69.4594 46.3999C67.9073 47.1718 66.0259 46.74 64.966 45.3683C63.9062 43.9966 63.9626 42.067 65.1009 40.7599C66.2399 39.4526 68.143 39.132 69.6472 39.9935C71.1515 40.8551 71.8374 42.6595 71.2857 44.3028C70.9811 45.2177 70.3236 45.9726 69.4594 46.3999Z" fill="black"/>
</g>
<defs>
<clipPath id="clip0">
<rect width="50" height="50" fill="white" transform="translate(34.2491 20.3467) rotate(18.5446)"/>
</clipPath>
</defs>
</svg>
