<svg width="102" height="102" viewBox="0 0 102 102" fill="none" xmlns="http://www.w3.org/2000/svg">
<circle cx="51" cy="51" r="51" fill="#F1CA2A"/>
<path d="M61.9375 70.5312C61.506 70.5312 61.1562 70.1815 61.1562 69.75C61.1562 69.3185 61.506 68.9688 61.9375 68.9688C62.369 68.9688 62.7188 69.3185 62.7188 69.75C62.7188 70.1815 62.369 70.5312 61.9375 70.5312Z" fill="#1B130F"/>
<path d="M36.9375 65.8438C39.0914 65.8438 40.8438 67.5961 40.8438 69.75C40.8438 71.9039 39.0914 73.6562 36.9375 73.6562C34.7836 73.6562 33.0312 71.9039 33.0312 69.75C33.0312 67.5961 34.7836 65.8438 36.9375 65.8438ZM36.9375 72.0938C38.2297 72.0938 39.2812 71.0422 39.2812 69.75C39.2812 68.4578 38.2297 67.4062 36.9375 67.4062C35.6453 67.4062 34.5938 68.4578 34.5938 69.75C34.5938 71.0422 35.6453 72.0938 36.9375 72.0938Z" fill="#1B130F"/>
<path d="M36.9375 70.5312C36.506 70.5312 36.1562 70.1815 36.1562 69.75C36.1562 69.3185 36.506 68.9688 36.9375 68.9688C37.369 68.9688 37.7188 69.3185 37.7188 69.75C37.7188 70.1815 37.369 70.5312 36.9375 70.5312Z" fill="#1B130F"/>
<path d="M61.9375 65.8438C64.0914 65.8438 65.8438 67.5961 65.8438 69.75C65.8438 71.9039 64.0914 73.6562 61.9375 73.6562C59.7836 73.6562 58.0312 71.9039 58.0312 69.75C58.0312 67.5961 59.7836 65.8438 61.9375 65.8438ZM61.9375 72.0938C63.2297 72.0938 64.2812 71.0422 64.2812 69.75C64.2812 68.4578 63.2297 67.4062 61.9375 67.4062C60.6453 67.4062 59.5938 68.4578 59.5938 69.75C59.5938 71.0422 60.6453 72.0938 61.9375 72.0938Z" fill="#1B130F"/>
<path d="M73.6562 67.4062H72.0938V68.9688H73.6562V67.4062Z" fill="#1B130F"/>
<path d="M29.125 61.1562H29.9062C30.1141 61.1562 30.3125 61.0742 30.4586 60.9273L39.6047 51.7812H57.7078L59.2703 53.3438H50.2188C49.7867 53.3438 49.4375 53.693 49.4375 54.125V60.375C49.4375 60.807 49.7867 61.1562 50.2188 61.1562H67.4062H71.3125C72.6047 61.1562 73.6562 62.2078 73.6562 63.5V65.8438H71.3125C70.8805 65.8438 70.5312 66.193 70.5312 66.625V68.9688H67.3438C66.9625 66.3234 64.6867 64.2812 61.9375 64.2812C59.1883 64.2812 56.9125 66.3234 56.5312 68.9688H42.3437C41.9625 66.3234 39.6867 64.2812 36.9375 64.2812C34.1883 64.2812 31.9125 66.3234 31.5312 68.9688H28.3438V61.9375C28.3438 61.5063 28.6937 61.1562 29.125 61.1562ZM49.4375 64.2812H52.5625V62.7188H49.4375V64.2812ZM33.8719 60.6742C33.9922 60.9664 34.2781 61.1562 34.5938 61.1562H47.0938C47.5258 61.1562 47.875 60.807 47.875 60.375V54.125C47.875 53.693 47.5258 53.3438 47.0938 53.3438H40.8438C40.6359 53.3438 40.4375 53.4258 40.2914 53.5727L34.0414 59.8227C33.818 60.0461 33.7508 60.382 33.8719 60.6742Z" fill="#1B130F"/>
<path d="M46.3125 54.9062V59.5938H36.4797L41.1672 54.9062H46.3125Z" fill="#1B130F"/>
<path d="M51 54.9062H60.8328L65.5203 59.5938H51V54.9062Z" fill="#1B130F"/>
<path d="M71.3125 40.0625V45.5312C71.3125 46.3945 70.6133 47.0938 69.75 47.0938C68.8867 47.0938 68.1875 46.3945 68.1875 45.5312V44.75C68.1875 43.8867 67.4883 43.1875 66.625 43.1875C65.7617 43.1875 65.0625 43.8867 65.0625 44.75V47.875C65.0625 48.7383 64.3633 49.4375 63.5 49.4375C62.6367 49.4375 61.9375 48.7383 61.9375 47.875V40.0625" fill="#1B130F"/>
<path d="M72.0938 37.7188H64.2813V36.1562H72.0938V34.5938H64.2813V33.0312H72.0938V31.4688H64.2813V29.9062H72.0938V28.3438H61.1563V39.2812H72.0938V37.7188ZM56.4688 38.5C56.4688 38.9312 56.8188 39.2812 57.25 39.2812H59.5938V28.3438H57.25C56.8188 28.3438 56.4688 28.6938 56.4688 29.125V38.5ZM31.7922 35.375H54.9063V32.25H31.7922L30.2297 33.8125L31.7922 35.375Z" fill="#1B130F"/>
<path d="M35.375 48.6562C33.8992 48.1641 32.7422 47.007 32.25 45.5312C31.7578 47.007 30.6008 48.1641 29.125 48.6562C30.6008 49.1484 31.7578 50.3055 32.25 51.7812C32.7422 50.3055 33.8992 49.1484 35.375 48.6562Z" fill="#1B130F"/>
<path d="M51 42.4062C49.5242 41.9141 48.3672 40.757 47.875 39.2812C47.3828 40.757 46.2258 41.9141 44.75 42.4062C46.2258 42.8984 47.3828 44.0555 47.875 45.5312C48.3672 44.0555 49.5242 42.8984 51 42.4062Z" fill="#1B130F"/>
</svg>
