<svg width="102" height="102" viewBox="0 0 102 102" fill="none" xmlns="http://www.w3.org/2000/svg">
<circle cx="51" cy="51" r="51" fill="#F1CA2A"/>
<path d="M37.4583 33.2494H64.5416C65.1174 33.2494 65.5833 32.7835 65.5833 32.2077C65.5833 31.6319 65.1174 31.166 64.5416 31.166H37.4583C36.8825 31.166 36.4166 31.6319 36.4166 32.2077C36.4167 32.7835 36.8826 33.2494 37.4583 33.2494Z" fill="#1B130F"/>
<path d="M40.7685 35.7815C40.0869 36.7682 38.5 39.2076 38.5 40.5402C38.5 42.2634 39.9018 43.6652 41.625 43.6652C43.3482 43.6652 44.75 42.2634 44.75 40.5402C44.75 39.2076 43.1631 36.7682 42.4815 35.7815C42.095 35.22 41.1551 35.22 40.7685 35.7815Z" fill="#1B130F"/>
<path d="M49.1018 37.8655C48.4203 38.8522 46.8334 41.2916 46.8334 42.6242C46.8334 44.3474 48.2351 45.7492 49.9584 45.7492C51.6816 45.7492 53.0834 44.3474 53.0834 42.6242C53.0834 41.2916 51.4965 38.8522 50.8149 37.8655C50.4283 37.304 49.4884 37.304 49.1018 37.8655Z" fill="#1B130F"/>
<path d="M57.4352 35.7815C56.7537 36.7682 55.1667 39.2076 55.1667 40.5402C55.1667 42.2634 56.5685 43.6652 58.2917 43.6652C60.015 43.6652 61.4167 42.2634 61.4167 40.5402C61.4167 39.2076 59.8298 36.7682 59.1483 35.7815C58.7617 35.22 57.8217 35.22 57.4352 35.7815Z" fill="#1B130F"/>
<path d="M73.3877 55.8906L63.0849 54.1866L60.0861 49.6885C59.3109 48.5268 58.015 47.833 56.6193 47.833H41.2141C39.8184 47.833 38.5224 48.5268 37.7473 49.6885L34.7313 54.2125L28.3682 55.8031C26.9745 56.151 26 57.3981 26 58.8346V64.0684C26 65.2962 26.4781 66.4508 27.3469 67.3195C28.2034 68.175 29.3875 68.6664 30.598 68.6664H33.2917C33.3283 68.6664 33.3592 68.6492 33.3948 68.6455C33.8709 71.0298 35.977 72.833 38.5 72.833C41.0222 72.833 43.128 71.0312 43.605 68.6481C43.6396 68.6517 43.6711 68.6684 43.7063 68.6684L57.25 68.6663C57.2866 68.6663 57.3175 68.6491 57.3531 68.6454C57.8291 71.0297 59.9353 72.8329 62.4583 72.8329C64.9813 72.8329 67.0874 71.0297 67.5635 68.6454C67.5991 68.6491 67.63 68.6663 67.6666 68.6663H72.232C73.0255 68.6663 73.7396 68.2259 74.0956 67.5147L75.7802 64.1436C75.8168 64.0703 75.8453 63.993 75.8636 63.9137L75.9734 63.4478C75.9918 63.3704 75.9999 63.2911 75.9999 63.2117V58.9729C76 57.4379 74.9014 56.1419 73.3877 55.8906ZM38.5 70.7496C36.7768 70.7496 35.375 69.3479 35.375 67.6246C35.375 65.9014 36.7768 64.4996 38.5 64.4996C40.2232 64.4996 41.625 65.9014 41.625 67.6246C41.625 69.3479 40.2232 70.7496 38.5 70.7496ZM37.3214 54.0829L39.4807 50.8439C39.8672 50.2631 40.5162 49.9162 41.2141 49.9162H56.6193C57.3172 49.9162 57.9662 50.2631 58.3527 50.8439L60.512 54.0829H37.3214ZM62.4583 70.7496C60.7351 70.7496 59.3333 69.3479 59.3333 67.6246C59.3333 65.9014 60.7351 64.4996 62.4583 64.4996C64.1815 64.4996 65.5833 65.9014 65.5833 67.6246C65.5833 69.3479 64.1815 70.7496 62.4583 70.7496Z" fill="#1B130F"/>
</svg>
