<svg width="102" height="102" viewBox="0 0 102 102" fill="none" xmlns="http://www.w3.org/2000/svg">
<circle cx="51" cy="51" r="51" fill="#F1CA2A"/>
<g clip-path="url(#clip0)">
<path d="M72.6935 37.8237L66.8471 32.6858C66.6677 32.5271 66.4292 32.4464 66.194 32.4631C65.9555 32.4789 65.7329 32.5884 65.5751 32.7682L44.37 56.9034L36.8301 46.9236C36.6863 46.7334 36.4722 46.6077 36.2356 46.5752C35.9994 46.54 35.7583 46.6041 35.5681 46.7487L29.3579 51.44C28.9608 51.7402 28.8819 52.3054 29.1821 52.7025L43.1431 71.1809C43.3062 71.3968 43.5587 71.5284 43.8291 71.5383C43.8399 71.5383 43.8512 71.5383 43.862 71.5383C44.1207 71.5383 44.3677 71.4275 44.5394 71.2318L72.7751 39.0957C73.1041 38.722 73.0676 38.1518 72.6935 37.8237Z" fill="#1B130F"/>
</g>
<defs>
<clipPath id="clip0">
<rect width="44" height="44" fill="white" transform="translate(29 30)"/>
</clipPath>
</defs>
</svg>
