<svg width="102" height="102" viewBox="0 0 102 102" fill="none" xmlns="http://www.w3.org/2000/svg">
<circle cx="51" cy="51" r="51" fill="#F1CA2A"/>
<path d="M36.0782 32.625V40.5936L59.9868 40.5938L48.3459 32.625H36.0782Z" fill="#1B130F"/>
<path d="M75.5466 45.2816C75.5466 44.8202 75.3202 44.3881 74.9408 44.1254L50.5661 27.25C50.3309 27.0873 50.0517 27 49.7657 27H31.8594C31.4864 27 31.1287 27.1482 30.8651 27.4119C30.6013 27.6757 30.4532 28.0333 30.4532 28.4062L30.4535 63.75H63.4619C66.1189 60.8699 69.9224 59.0626 74.1405 59.0625C74.5135 59.0625 74.8712 58.9143 75.1348 58.6506C75.3985 58.3868 75.5467 58.0292 75.5467 57.6562L75.5466 45.2816ZM39.1719 53.3438H34.6719C33.8953 53.3438 33.2657 52.7141 33.2657 51.9375C33.2657 51.1609 33.8953 50.5312 34.6719 50.5312H39.1719C39.9486 50.5312 40.5782 51.1609 40.5782 51.9375C40.5782 52.7141 39.9486 53.3438 39.1719 53.3438ZM65.8739 42.4159C65.6917 43.0048 65.1471 43.4063 64.5306 43.4063L34.6719 43.4061C33.8953 43.4061 33.2657 42.7764 33.2657 41.9998V31.2188C33.2657 30.4421 33.8953 29.8125 34.6719 29.8125H48.7812C49.0647 29.8125 49.3417 29.8982 49.5756 30.0584L65.325 40.8397C65.8337 41.1878 66.0563 41.8268 65.8739 42.4159Z" fill="#1B130F"/>
<path d="M30.4534 66.5625L30.4535 73.5938C30.4535 74.3704 31.0831 75 31.8598 75H58.2031C58.9798 75 59.6094 74.3704 59.6094 73.5938C59.6094 71.0447 60.27 68.6473 61.4277 66.5625H30.4534Z" fill="#1B130F"/>
</svg>
