<svg width="102" height="102" viewBox="0 0 102 102" fill="none" xmlns="http://www.w3.org/2000/svg">
<circle cx="51" cy="51" r="51" fill="#F1CA2A"/>
<path d="M73.3474 41.7913C73.1725 41.7913 72.9932 41.8164 72.8141 41.8656L70.7879 42.4238L68.6837 37.2984C68.0875 35.8463 66.3257 34.665 64.7559 34.665H45.0639C43.4944 34.665 41.7324 35.8463 41.1361 37.2984L39.0351 42.4168L37.0342 41.8656C36.8551 41.8162 36.6758 41.7913 36.5009 41.7913C35.5433 41.7913 34.8483 42.5228 34.8483 43.531V44.7255C34.8483 44.7777 34.8525 44.8287 34.8561 44.8799C34.3931 45.2249 33.9517 45.6056 33.5359 46.0213C31.295 48.2622 30.0609 51.2414 30.0609 54.4104C30.0609 56.9794 30.8723 59.4239 32.3733 61.451L25.5201 68.3046C24.8267 68.9979 24.8267 70.1222 25.5201 70.8157C25.8668 71.1625 26.3212 71.3358 26.7756 71.3358C27.23 71.3358 27.6843 71.1625 28.031 70.8157L34.8846 63.9621C36.9119 65.4633 39.3562 66.2747 41.9252 66.2747C45.0942 66.2747 48.0736 65.0406 50.3143 62.7997C51.0372 62.0768 51.6537 61.2761 52.1593 60.4179H66.8982V62.9608C66.8982 64.1374 67.8554 65.0946 69.0319 65.0946H71.8187C72.9952 65.0946 73.9524 64.1374 73.9524 62.9608V52.7779C73.9524 51.3197 73.5018 49.0356 72.948 47.6865L72.6083 46.8592H72.8657C74.0422 46.8592 74.9994 45.902 74.9994 44.7253V43.5308C75 42.5228 74.305 41.7913 73.3474 41.7913ZM43.7479 37.9474C44.1045 37.0789 45.1643 36.3683 46.1034 36.3683H63.717C64.6559 36.3683 65.7159 37.0789 66.0725 37.9474L69.2552 45.7004C69.6118 46.569 69.1353 47.2795 68.1964 47.2795H51.4077C51.0752 46.8393 50.7115 46.4182 50.3147 46.0213C48.0738 43.7804 45.0946 42.5463 41.9256 42.5463C41.9035 42.5463 41.8818 42.5477 41.8596 42.5479L43.7479 37.9474ZM41.9252 62.7234C39.7048 62.7234 37.6171 61.8586 36.0469 60.2885C34.4768 58.7185 33.6122 56.631 33.6122 54.4104C33.6122 52.1898 34.477 50.1023 36.0469 48.5322C37.6171 46.9622 39.7046 46.0974 41.9252 46.0974C44.1458 46.0974 46.2333 46.9622 47.8034 48.5322C49.3736 50.1023 50.2382 52.1898 50.2382 54.4102C50.2382 56.6308 49.3736 58.7183 47.8034 60.2885C46.2333 61.8586 44.1458 62.7234 41.9252 62.7234ZM69.8459 55.5069C69.8459 55.9764 69.4618 56.3605 68.9923 56.3605H62.9461C62.4768 56.3605 62.0925 55.9764 62.0925 55.5069V52.6052C62.0925 52.1358 62.4766 51.7516 62.9461 51.7516H68.9923C69.4618 51.7516 69.8459 52.1356 69.8459 52.6052V55.5069Z" fill="#1B130F"/>
</svg>
