<svg width="102" height="102" viewBox="0 0 102 102" fill="none" xmlns="http://www.w3.org/2000/svg">
<circle cx="51" cy="51" r="51" fill="#F1CA2A"/>
<path d="M37.4583 32.2494H64.5416C65.1174 32.2494 65.5833 31.7835 65.5833 31.2077C65.5833 30.6319 65.1174 30.166 64.5416 30.166H37.4583C36.8825 30.166 36.4166 30.6319 36.4166 31.2077C36.4167 31.7835 36.8826 32.2494 37.4583 32.2494Z" fill="#1B130F"/>
<path d="M40.7685 34.7815C40.0869 35.7682 38.5 38.2076 38.5 39.5402C38.5 41.2634 39.9018 42.6652 41.625 42.6652C43.3482 42.6652 44.75 41.2634 44.75 39.5402C44.75 38.2076 43.1631 35.7682 42.4815 34.7815C42.095 34.22 41.1551 34.22 40.7685 34.7815Z" fill="#1B130F"/>
<path d="M49.1018 36.8655C48.4203 37.8522 46.8334 40.2916 46.8334 41.6242C46.8334 43.3474 48.2351 44.7492 49.9584 44.7492C51.6816 44.7492 53.0834 43.3474 53.0834 41.6242C53.0834 40.2916 51.4965 37.8522 50.8149 36.8655C50.4283 36.304 49.4884 36.304 49.1018 36.8655Z" fill="#1B130F"/>
<path d="M57.4351 34.7815C56.7536 35.7682 55.1667 38.2076 55.1667 39.5402C55.1667 41.2634 56.5684 42.6652 58.2917 42.6652C60.0149 42.6652 61.4167 41.2634 61.4167 39.5402C61.4167 38.2076 59.8298 35.7682 59.1482 34.7815C58.7616 34.22 57.8217 34.22 57.4351 34.7815Z" fill="#1B130F"/>
<path d="M73.3877 54.8906L63.0849 53.1866L60.0861 48.6885C59.3109 47.5268 58.015 46.833 56.6193 46.833H41.2141C39.8184 46.833 38.5224 47.5268 37.7473 48.6885L34.7313 53.2125L28.3682 54.8031C26.9745 55.151 26 56.3981 26 57.8346V63.0684C26 64.2962 26.4781 65.4508 27.3469 66.3195C28.2034 67.175 29.3875 67.6664 30.598 67.6664H33.2917C33.3283 67.6664 33.3592 67.6492 33.3948 67.6455C33.8709 70.0298 35.977 71.833 38.5 71.833C41.0222 71.833 43.128 70.0312 43.605 67.6481C43.6396 67.6517 43.6711 67.6684 43.7063 67.6684L57.25 67.6663C57.2866 67.6663 57.3175 67.6491 57.3531 67.6454C57.8291 70.0297 59.9353 71.8329 62.4583 71.8329C64.9813 71.8329 67.0874 70.0297 67.5635 67.6454C67.5991 67.6491 67.63 67.6663 67.6666 67.6663H72.232C73.0255 67.6663 73.7396 67.2259 74.0956 66.5147L75.7802 63.1436C75.8168 63.0703 75.8453 62.993 75.8636 62.9137L75.9734 62.4478C75.9918 62.3704 75.9999 62.2911 75.9999 62.2117V57.9729C76 56.4379 74.9014 55.1419 73.3877 54.8906ZM38.5 69.7496C36.7768 69.7496 35.375 68.3479 35.375 66.6246C35.375 64.9014 36.7768 63.4996 38.5 63.4996C40.2232 63.4996 41.625 64.9014 41.625 66.6246C41.625 68.3479 40.2232 69.7496 38.5 69.7496ZM37.3214 53.0829L39.4807 49.8439C39.8672 49.2631 40.5162 48.9162 41.2141 48.9162H56.6193C57.3172 48.9162 57.9662 49.2631 58.3527 49.8439L60.512 53.0829H37.3214ZM62.4583 69.7496C60.7351 69.7496 59.3333 68.3479 59.3333 66.6246C59.3333 64.9014 60.7351 63.4996 62.4583 63.4996C64.1815 63.4996 65.5833 64.9014 65.5833 66.6246C65.5833 68.3479 64.1815 69.7496 62.4583 69.7496Z" fill="#1B130F"/>
</svg>
