<svg width="102" height="102" viewBox="0 0 102 102" fill="none" xmlns="http://www.w3.org/2000/svg">
<circle cx="51" cy="51" r="51" fill="#F1CA2A"/>
<path d="M56.6289 57.1133V62.0977H67.8437C67.8449 62.0977 67.8454 62.0976 67.8454 62.0976L67.8448 57.1133H56.6289Z" fill="#1B130F"/>
<path d="M67.8441 49.5508H56.6289V54.5352H67.8441V49.5508Z" fill="#1B130F"/>
<path d="M69.121 37.1334H62.8175C61.2217 32.9672 57.1814 30.001 52.4607 30.001H48.0783C43.3576 30.001 39.3173 32.9672 37.7215 37.1334H32.8672C30.7348 37.1334 29 38.8683 29 41.0006V54.3209C29 56.4533 30.7348 58.1881 32.8672 58.1881H43.6953C45.8277 58.1881 47.5625 56.4533 47.5625 54.3209V41.0006C47.5625 38.8683 45.8277 37.1334 43.6953 37.1334H40.5466C41.9726 34.428 44.8134 32.5791 48.0783 32.5791H52.4607C55.7256 32.5791 58.5664 34.428 59.9923 37.1334H55.3945C53.2556 37.1334 51.5155 38.8735 51.5155 41.0124V63.4186C51.5155 65.5575 53.2556 67.2976 55.3945 67.2976H69.121C71.2599 67.2976 73 65.5575 73 63.4186V41.0124C73 38.8735 71.2599 37.1334 69.121 37.1334ZM43.7526 53.7193H32.8672C32.1553 53.7193 31.5781 53.1421 31.5781 52.4302C31.5781 51.7183 32.1553 51.1412 32.8672 51.1412H43.7526C44.4645 51.1412 45.0417 51.7183 45.0417 52.4302C45.0417 53.1421 44.4645 53.7193 43.7526 53.7193ZM43.7526 45.9849C44.4645 45.9849 45.0417 46.5621 45.0417 47.274C45.0417 47.9859 44.4645 48.563 43.7526 48.563H32.8672C32.1553 48.563 31.5781 47.9859 31.5781 47.274C31.5781 46.5621 32.1553 45.9849 32.8672 45.9849H43.7526ZM70.4219 62.0985C70.4219 63.52 69.2653 64.6766 67.8438 64.6766H56.6289C55.2073 64.6766 54.0508 63.52 54.0508 62.0985V49.5516C54.0508 48.13 55.2073 46.9735 56.6289 46.9735H67.8438C69.2653 46.9735 70.4219 48.13 70.4219 49.5516V62.0985Z" fill="#1B130F"/>
<path d="M34.6719 72.7108C34.6719 73.4227 35.249 73.9998 35.9609 73.9998H37.9372C38.3874 73.9998 38.805 73.765 39.0388 73.3803L41.7031 68.9972C41.8257 68.7955 41.8906 68.5639 41.8906 68.3277V60.7227H34.6719V72.7108Z" fill="#1B130F"/>
</svg>
