<svg width="102" height="102" viewBox="0 0 102 102" fill="none" xmlns="http://www.w3.org/2000/svg">
<circle cx="51" cy="51" r="51" fill="#F1CA2A"/>
<path d="M75.1882 46.3211H71.8562C71.4947 46.3211 71.182 46.5459 71.0648 46.8879L68.749 53.8254H66.4821L64.2249 50.0635C64.0784 49.8094 63.8048 49.6629 63.5116 49.6629H60.1796V47.1615C60.1796 46.7022 59.8083 46.3309 59.3491 46.3309H53.5157V42.9989H56.0171C56.4764 42.9989 56.8477 42.6276 56.8477 42.1684V37.1557C56.8477 36.6965 56.4764 36.3252 56.0171 36.3252H40.9988C40.5395 36.3252 40.1682 36.6965 40.1682 37.1557V42.1586C40.1682 42.6178 40.5395 42.9892 40.9988 42.9892H43.5002V46.3211H36.8265C36.6017 46.3211 36.3966 46.4091 36.2402 46.5654C36.0839 46.7217 35.9959 46.9367 35.9959 47.1517V49.6531H30.1625C29.7033 49.6531 29.332 50.0244 29.332 50.4837V55.4865H27.6611V52.9949C27.6611 52.5356 27.2898 52.1643 26.8306 52.1643C26.3713 52.1643 26 52.5356 26 52.9949V59.6686C26 60.1278 26.3713 60.4991 26.8306 60.4991C27.2898 60.4991 27.6611 60.1278 27.6611 59.6686V57.1672H29.332V63.8409C29.332 64.3001 29.7033 64.6714 30.1625 64.6714H36.3868L39.4745 69.303C39.6308 69.5375 39.8946 69.6743 40.1682 69.6743H63.5116C63.8243 69.6743 64.1174 69.4984 64.2542 69.215L66.5212 64.6714H68.8272L71.0941 69.215C71.2406 69.4984 71.524 69.6743 71.8367 69.6743H75.1687C75.6279 69.6743 75.9992 69.303 75.9992 68.8437V47.1615C76.0188 46.6924 75.6475 46.3211 75.1882 46.3211ZM35.9959 63.0006H30.9931V51.324H35.9959V63.0006ZM51.835 46.3211H45.1613V42.9892H51.835V46.3211ZM68.5145 63.0006H66.8436V55.4963H68.5145V63.0006Z" fill="#1B130F"/>
</svg>
