<svg width="102" height="102" viewBox="0 0 102 102" fill="none" xmlns="http://www.w3.org/2000/svg">
<circle cx="51" cy="51" r="51" fill="#F1CA2A"/>
<path d="M38.3787 47.4017C39.2187 47.4017 40.0438 47.2701 40.8388 47.0167L45.5635 51.7382L50.7377 46.565L46.0152 41.8383C46.9256 38.9936 46.1776 35.8414 44.0559 33.7205C42.5455 32.2097 40.5349 31.3779 38.4 31.3779C37.2072 31.3779 36.0111 31.6482 34.9379 32.16C34.776 32.2371 34.6626 32.3876 34.6323 32.564C34.6028 32.7405 34.6596 32.9195 34.7855 33.0467L39.7567 38.019C40.1235 38.3855 40.3259 38.8722 40.3259 39.3887C40.3259 39.9066 40.1232 40.3924 39.7567 40.7589C39.0264 41.4913 37.7497 41.4913 37.0181 40.757L32.0452 35.786C31.9178 35.6585 31.7346 35.6027 31.5631 35.6323C31.3863 35.6627 31.2362 35.776 31.1591 35.9379C29.6986 38.9986 30.3245 42.6638 32.7197 45.0572C34.231 46.5685 36.2406 47.4017 38.3787 47.4017Z" fill="#1B130F"/>
<path d="M63.6242 56.5977C62.7825 56.5977 61.956 56.7301 61.1605 56.9841L55.9346 51.7578L50.7568 56.9347L55.9842 62.1619C55.0757 65.0058 55.8231 68.1571 57.9435 70.2793C59.4543 71.7901 61.465 72.622 63.5997 72.622C64.7931 72.622 65.9891 72.3511 67.0622 71.8396C67.2241 71.7626 67.3375 71.6119 67.3679 71.4355C67.3982 71.2591 67.3406 71.0798 67.2146 70.9528L62.2436 65.9795C61.8775 65.6139 61.6753 65.1281 61.6749 64.6115C61.6749 64.0941 61.8771 63.6083 62.2445 63.2414C62.9771 62.5083 64.2511 62.5088 64.9822 63.2418L69.954 68.2128C70.0811 68.3394 70.2584 68.3957 70.4367 68.3665C70.6132 68.3357 70.7638 68.2228 70.8408 68.0608C72.3013 65.0006 71.6758 61.3359 69.2806 58.942C67.7697 57.4309 65.7605 56.5977 63.6242 56.5977Z" fill="#1B130F"/>
<path d="M61.4971 44.8118C61.4971 44.8118 62.362 45.5694 63.0751 45.2155C63.881 44.8099 66.1515 47.0484 66.8759 47.5721C66.8783 47.5739 66.8833 47.5739 66.8918 47.578L66.4958 47.9757C65.9728 48.4927 65.9732 49.337 66.4944 49.8548C67.016 50.3742 67.8546 50.3737 68.3763 49.8548L71.5118 46.7235C72.0298 46.2028 72.0302 45.3601 71.5109 44.8403C70.9934 44.3223 70.1494 44.3223 69.63 44.8407L69.1079 45.3624C68.6752 44.7665 67.9563 43.7509 68.0475 43.4144C68.4299 41.9408 65.4258 38.4602 65.4258 38.4602C57.9652 31.001 52.9819 31.1705 50.6112 31.9857C49.6596 32.3131 49.836 32.5204 50.8244 32.6945C58.017 33.95 58.9091 38.1916 57.6899 39.8281C57.221 40.46 57.9049 41.2228 57.9049 41.2228L58.162 41.4781L46.0176 53.6204C46.1823 53.7196 46.3423 53.8326 46.4834 53.9741L48.5263 56.0151C48.6651 56.1543 48.7784 56.3132 48.8768 56.4777L61.0214 44.335L61.4971 44.8118Z" fill="#1B130F"/>
<path d="M45.666 54.7904C45.2178 54.3418 44.455 54.3129 43.9755 54.7293L30.4794 66.8288C29.9978 67.2448 29.9709 67.9527 30.42 68.4018L34.0961 72.0752C34.5455 72.5243 35.2521 72.4992 35.6676 72.0202L47.7708 58.5202C48.1849 58.0411 48.1586 57.281 47.7091 56.8325L45.666 54.7904Z" fill="#1B130F"/>
</svg>
