<svg width="102" height="102" viewBox="0 0 102 102" fill="none" xmlns="http://www.w3.org/2000/svg">
<circle cx="51" cy="51" r="51" fill="#F1CA2A"/>
<path d="M66.0012 30H36.0007C34.896 30 34.001 30.8959 34.001 32.0006V71.9994C34.001 73.1041 34.8969 74 36.0007 74H66.0012C67.1059 74 68.0008 73.1041 68.0008 71.9994V32.0006C68.0008 30.8959 67.1059 30 66.0012 30ZM64.0006 33.9992V39.999H38.0003V33.9992H64.0006ZM38.0003 70.0008V43.9992H64.0006V69.998H38.0003V70.0008Z" fill="#1B130F"/>
<path d="M45.1517 45.7686H40.9998C40.4475 45.7686 40 46.217 40 46.7684V50.923C40 51.4753 40.4484 51.9228 40.9998 51.9228H45.1517C45.7041 51.9228 46.1516 51.4744 46.1516 50.923V46.7684C46.1525 46.2151 45.706 45.7686 45.1517 45.7686Z" fill="#1B130F"/>
<path d="M53.0755 45.7686H48.9245C48.3722 45.7686 47.9247 46.217 47.9247 46.7684V50.923C47.9247 51.4753 48.3722 51.9228 48.9245 51.9228H53.0755C53.6278 51.9228 54.0753 51.4744 54.0753 50.923V46.7684C54.0763 46.2151 53.6278 45.7686 53.0755 45.7686Z" fill="#1B130F"/>
<path d="M61.0002 45.7686H56.8483C56.2959 45.7686 55.8494 46.217 55.8494 46.7684V50.923C55.8494 51.4753 56.2969 51.9228 56.8483 51.9228H61.0002C61.5525 51.9228 62 51.4744 62 50.923V46.7684C62 46.2151 61.5525 45.7686 61.0002 45.7686Z" fill="#1B130F"/>
<path d="M45.1517 53.9229H40.9998C40.4475 53.9229 40 54.3703 40 54.9217V59.0764C40 59.6287 40.4484 60.0752 40.9998 60.0752H45.1517C45.7041 60.0752 46.1516 59.6278 46.1516 59.0764V54.9217C46.1525 54.3685 45.706 53.9229 45.1517 53.9229Z" fill="#1B130F"/>
<path d="M53.0755 53.9229H48.9245C48.3722 53.9229 47.9247 54.3703 47.9247 54.9217V59.0764C47.9247 59.6287 48.3722 60.0752 48.9245 60.0752H53.0755C53.6278 60.0752 54.0753 59.6278 54.0753 59.0764V54.9217C54.0763 54.3685 53.6278 53.9229 53.0755 53.9229Z" fill="#1B130F"/>
<path d="M45.1517 62.0781H40.9998C40.4475 62.0781 40 62.5256 40 63.0761V67.2307C40 67.7849 40.4484 68.2305 40.9998 68.2305H45.1517C45.7041 68.2305 46.1516 67.7821 46.1516 67.2307V63.0761C46.1525 62.5237 45.706 62.0781 45.1517 62.0781Z" fill="#1B130F"/>
<path d="M53.0755 62.0781H48.9245C48.3722 62.0781 47.9247 62.5256 47.9247 63.0761V67.2307C47.9247 67.7849 48.3722 68.2305 48.9245 68.2305H53.0755C53.6278 68.2305 54.0753 67.7821 54.0753 67.2307V63.0761C54.0763 62.5237 53.6278 62.0781 53.0755 62.0781Z" fill="#1B130F"/>
<path d="M61.0002 53.9229H56.8483C56.2959 53.9229 55.8494 54.3703 55.8494 54.9217V67.2302C55.8494 67.7844 56.2969 68.23 56.8483 68.23H61.0002C61.5525 68.23 62 67.7816 62 67.2302V54.9217C62 54.3685 61.5525 53.9229 61.0002 53.9229Z" fill="#1B130F"/>
</svg>
