<svg width="102" height="102" viewBox="0 0 102 102" fill="none" xmlns="http://www.w3.org/2000/svg">
<circle cx="51" cy="51" r="51" fill="#F1CA2A"/>
<path d="M57.5369 30H33.7667V74H68.2333V40.6964L57.5369 30ZM41.8333 40.2667H49.1667C49.5715 40.2667 49.9 40.5945 49.9 41C49.9 41.4055 49.5715 41.7333 49.1667 41.7333H41.8333C41.4285 41.7333 41.1 41.4055 41.1 41C41.1 40.5945 41.4285 40.2667 41.8333 40.2667ZM60.1667 65.2H41.8333C41.4285 65.2 41.1 64.8722 41.1 64.4667C41.1 64.0611 41.4285 63.7333 41.8333 63.7333H60.1667C60.5715 63.7333 60.9 64.0611 60.9 64.4667C60.9 64.8722 60.5715 65.2 60.1667 65.2ZM60.1667 59.3333H41.8333C41.4285 59.3333 41.1 59.0055 41.1 58.6C41.1 58.1945 41.4285 57.8667 41.8333 57.8667H60.1667C60.5715 57.8667 60.9 58.1945 60.9 58.6C60.9 59.0055 60.5715 59.3333 60.1667 59.3333ZM60.1667 53.4667H41.8333C41.4285 53.4667 41.1 53.1389 41.1 52.7333C41.1 52.3278 41.4285 52 41.8333 52H60.1667C60.5715 52 60.9 52.3278 60.9 52.7333C60.9 53.1389 60.5715 53.4667 60.1667 53.4667ZM60.1667 47.6H41.8333C41.4285 47.6 41.1 47.2722 41.1 46.8667C41.1 46.4611 41.4285 46.1333 41.8333 46.1333H60.1667C60.5715 46.1333 60.9 46.4611 60.9 46.8667C60.9 47.2722 60.5715 47.6 60.1667 47.6ZM56.5 41.7333V31.4667L66.7667 41.7333H56.5Z" fill="#1B130F"/>
</svg>
