<svg width="102" height="102" viewBox="0 0 102 102" fill="none" xmlns="http://www.w3.org/2000/svg">
<circle cx="51" cy="51" r="51" fill="#F1CA2A"/>
<path d="M65.3928 61.6182C61.9784 61.6182 59.1995 64.3965 59.1995 67.8091C59.1995 71.2229 61.9784 73.9993 65.3928 73.9993C68.804 73.9993 71.5836 71.2191 71.5836 67.8091C71.5842 64.3953 68.8072 61.6182 65.3928 61.6182ZM65.3928 71.8985C63.135 71.8985 61.2991 70.0625 61.2991 67.8047C61.2991 65.5487 63.135 63.714 65.3928 63.714C67.65 63.714 69.4834 65.5487 69.4834 67.8047C69.4859 70.0632 67.65 71.8985 65.3928 71.8985Z" fill="#1B130F"/>
<path d="M53.1021 58.4587H60.4431V57.3856H64.3472C70.0251 57.3856 72.9937 53.3465 72.9937 48.3649C72.9937 44.8186 71.4811 41.7608 68.5665 40.2872C67.7654 34.3368 64.4822 30 60.4438 30H41.5618C37.5189 30 34.2389 34.3355 33.434 40.2859C30.5188 41.7583 29.0062 44.8186 29.0062 48.3649C29.0062 51.0899 29.9003 53.5292 31.6358 55.1812V60.8045H38.6328V57.3844H41.5586V58.4556H48.9003V72.2482H45.3485V73.6446H56.6508V72.2482H53.0989V58.4587H53.1021ZM57.3515 39.3454C57.3515 37.6394 58.7366 36.2537 60.4406 36.2537C62.1453 36.2537 63.5316 37.6394 63.5316 39.3454H57.3515ZM60.2115 47.5085C60.2115 47.8959 59.8988 48.2085 59.5126 48.2085H42.486C42.0992 48.2085 41.7847 47.8959 41.7847 47.5085C41.7847 47.1211 42.0986 46.8077 42.486 46.8077H59.5133C59.8988 46.8077 60.2115 47.1211 60.2115 47.5085ZM68.3236 48.3649C68.3236 49.9854 67.0101 51.2965 65.3933 51.2965C63.7746 51.2965 62.4599 49.9854 62.4599 48.3649C62.4599 46.7456 63.7746 45.4333 65.3933 45.4333C67.0107 45.4333 68.3236 46.7456 68.3236 48.3649ZM36.6066 51.2965C34.9886 51.2965 33.6763 49.9854 33.6763 48.3649C33.6763 46.7456 34.9905 45.4333 36.6066 45.4333C38.2259 45.4333 39.5394 46.7462 39.5394 48.3649C39.5394 49.9854 38.2272 51.2965 36.6066 51.2965ZM37.6533 39.3454C36.9626 39.3454 36.314 39.4069 35.7025 39.5212C36.5696 35.2535 38.8983 32.1003 41.5605 32.1003H60.4406C63.099 32.1003 65.4278 35.2535 66.2955 39.5212C65.8604 39.4389 65.4021 39.395 64.9261 39.3699C64.9261 39.3604 64.9293 39.3523 64.9293 39.3435C64.9293 36.8665 62.9157 34.8529 60.4381 34.8529C57.963 34.8529 55.9495 36.8678 55.9495 39.3435L37.6533 39.3454ZM42.486 50.7747C42.0992 50.7747 41.7847 50.4626 41.7847 50.0752C41.7847 49.6878 42.0986 49.3758 42.486 49.3758H59.5133C59.8994 49.3758 60.2121 49.6878 60.2121 50.0752C60.2121 50.4626 59.8994 50.7747 59.5133 50.7747H42.486Z" fill="#1B130F"/>
</svg>
