<svg width="102" height="102" viewBox="0 0 102 102" fill="none" xmlns="http://www.w3.org/2000/svg">
<circle cx="51" cy="51" r="51" fill="#F1CA2A"/>
<g clip-path="url(#clip0)">
<path d="M69.9996 66.0001H62.9997C58.5887 66.0001 54.9999 62.4113 54.9999 58.0002C54.9999 53.5892 58.5887 50.0004 62.9997 50.0004H69.9996C70.5524 50.0004 70.9996 49.5531 70.9996 49.0004V46.0004C70.9996 43.9035 69.3731 42.1981 67.3181 42.0327L61.575 32.0016C61.0428 31.0739 60.1834 30.4108 59.1551 30.1355C58.1316 29.862 57.0614 30.0056 56.1454 30.5388L36.4579 42.0005H33.0002C30.7942 42.0005 29.0002 43.7943 29.0002 46.0004V70C29.0002 72.206 30.7941 74 33.0002 74H66.9997C69.2057 74 70.9996 72.2061 70.9996 70V67.0001C70.9996 66.4473 70.5524 66.0001 69.9996 66.0001ZM62.8152 38.1946L64.9941 42.0005H56.2782L62.8152 38.1946ZM40.4329 42.0005L57.1522 32.2672C57.6043 32.0026 58.1326 31.9322 58.6375 32.0671C59.1483 32.2037 59.5741 32.5338 59.8387 32.9957L59.8408 32.9994L44.3807 42.0005H40.4329Z" fill="#1B130F"/>
<path d="M69.9996 52H62.9997C59.6911 52 56.9998 54.6913 56.9998 57.9999C56.9998 61.3085 59.6911 63.9998 62.9997 63.9998H69.9996C71.6539 63.9998 72.9995 62.6542 72.9995 60.9999V55C72.9995 53.3457 71.6539 52 69.9996 52ZM62.9997 59.9998C61.8972 59.9998 60.9997 59.1024 60.9997 57.9999C60.9997 56.8974 61.8972 56 62.9997 56C64.1021 56 64.9996 56.8974 64.9996 57.9999C64.9997 59.1024 64.1022 59.9998 62.9997 59.9998Z" fill="#1B130F"/>
</g>
<defs>
<clipPath id="clip0">
<rect width="44" height="44" fill="white" transform="translate(29 30)"/>
</clipPath>
</defs>
</svg>
